<svg id="Capa_1" enable-background="new 0 0 512 512" height="512" viewBox="0 0 512 512" width="512" xmlns="http://www.w3.org/2000/svg"><path d="m149.829 15.516c11.417 21.78 18.276 49.708 18.276 80.161s-6.86 58.381-18.276 80.161h80.161c-11.417-21.78-18.276-49.708-18.276-80.161s6.86-58.381 18.276-80.161" fill="#aedb81"/><path d="m149.829 15.516c11.417 21.78 18.277 49.708 18.277 80.161s-6.86 58.381-18.277 80.161h40.081v-120.241c0-8.854 7.178-16.032 16.032-16.032h14.192c2.726-8.607 6.006-16.702 9.857-24.048" fill="#95cc81"/><path d="m229.99 336.162c-11.417-21.78-18.276-49.708-18.276-80.161s6.86-58.381 18.276-80.161h-80.161c11.417 21.78 18.276 49.708 18.276 80.161s-6.86 58.381-18.276 80.161z" fill="#aedb81"/><path d="m189.909 336.162v-120.242c0-8.854 7.178-16.032 16.032-16.032h14.192c2.726-8.607 6.006-16.702 9.857-24.048h-80.161c11.417 21.78 18.277 49.708 18.277 80.161s-6.86 58.381-18.277 80.161z" fill="#95cc81"/><path d="m229.99 496.484c-11.417-21.78-18.276-49.708-18.276-80.161s6.86-58.381 18.276-80.161h-80.161c11.417 21.78 18.276 49.708 18.276 80.161s-6.86 58.381-18.276 80.161z" fill="#aedb81"/><path d="m189.909 496.484v-120.242c0-8.854 7.178-16.032 16.032-16.032h14.192c2.726-8.607 6.006-16.702 9.857-24.048h-80.161c11.417 21.78 18.277 49.708 18.277 80.161s-6.86 58.381-18.277 80.161z" fill="#95cc81"/><path d="m65.466 117.186c-16.932 12.206-29.522 27.184-36.458 41.821-1.949 4.112 1.482 8.871 5.999 8.322 16.078-1.955 34.267-9.166 51.199-21.373 16.932-12.206 29.522-27.184 36.458-41.821 1.949-4.112-1.482-8.871-5.999-8.322-16.078 1.955-34.267 9.166-51.199 21.373z" fill="#aedb81"/><path d="m438.084 446.856c15.024 16.288 24.63 34.659 28.023 51.15.653 3.173-2.257 5.857-5.367 4.95-16.164-4.71-33.701-15.765-48.725-32.053s-24.63-34.659-28.023-51.15c-.653-3.173 2.257-5.857 5.367-4.95 16.164 4.71 33.701 15.765 48.725 32.053z" fill="#c8eb82"/><path d="m278.087 15.516c11.417 21.78 18.276 49.708 18.276 80.161s-6.86 58.381-18.276 80.161h80.161c-11.417-21.78-18.276-49.708-18.276-80.161s6.86-58.381 18.276-80.161" fill="#aedb81"/><path d="m278.087 15.516c11.417 21.78 18.277 49.708 18.277 80.161s-6.86 58.381-18.277 80.161h40.081v-120.241c0-8.854 7.178-16.032 16.032-16.032h14.192c2.726-8.607 6.006-16.702 9.857-24.048" fill="#95cc81"/><path d="m358.248 336.162c-11.417-21.78-18.276-49.708-18.276-80.161s6.86-58.381 18.276-80.161h-80.161c11.417 21.78 18.276 49.708 18.276 80.161s-6.86 58.381-18.276 80.161z" fill="#aedb81"/><path d="m318.167 336.162v-120.242c0-8.854 7.178-16.032 16.032-16.032h14.192c2.726-8.607 6.006-16.702 9.857-24.048h-80.161c11.417 21.78 18.277 49.708 18.277 80.161s-6.86 58.381-18.277 80.161z" fill="#95cc81"/><path d="m358.248 496.484c-11.417-21.78-18.276-49.708-18.276-80.161s6.86-58.381 18.276-80.161h-80.161c11.417 21.78 18.276 49.708 18.276 80.161s-6.86 58.381-18.276 80.161z" fill="#aedb81"/><path d="m318.167 496.484v-120.242c0-8.854 7.178-16.032 16.032-16.032h14.192c2.726-8.607 6.006-16.702 9.857-24.048h-80.161c11.417 21.78 18.277 49.708 18.277 80.161s-6.86 58.381-18.277 80.161z" fill="#95cc81"/><path d="m218.06 291.956c-12.574 9.299-21.21 21.554-25.03 33.839-.81 2.604.916 5.441 3.643 5.482 12.683.189 26.878-4.366 39.534-13.726 12.574-9.299 21.21-21.554 25.03-33.839.81-2.604-.916-5.441-3.643-5.482-12.683-.189-26.878 4.366-39.534 13.726z" fill="#c8eb82"/><ellipse cx="82.296" cy="51.388" fill="#95cc81" rx="17.733" ry="62.066" transform="matrix(.707 -.707 .707 .707 -12.233 73.243)"/><ellipse cx="434.737" cy="379.022" fill="#95cc81" rx="62.066" ry="17.733" transform="matrix(.834 -.552 .552 .834 -136.95 302.686)"/><ellipse cx="224.621" cy="239.289" fill="#aedb81" rx="14.768" ry="51.701" transform="matrix(.716 -.699 .699 .716 -103.262 224.926)"/><path d="m493.554 347.35c1.069-2.94.223-6.318-2.338-8.407-1.259-1.028-2.85-1.573-4.473-1.656-20.442-1.041-44.462 6.493-65.925 20.687-20.817 13.767-36.784 32.199-44.155 50.834-4.45 4.028-17.33 16.803-26.827 37.224-1.55-9.647-2.364-19.625-2.364-29.709 0-28.018 6.186-55.25 17.418-76.679 1.146-2.186 1.124-4.779-.009-6.948l.009-.016c-11.232-21.429-17.418-48.661-17.418-76.679s6.186-55.25 17.418-76.679c1.146-2.186 1.124-4.779-.009-6.948l.009-.016c-11.232-21.429-17.418-48.661-17.418-76.679 0-27.926 6.145-55.07 17.307-76.467.964-1.847 1.258-4.009.612-5.99-1.034-3.17-3.947-5.205-7.143-5.205h-79.968c-1.835 0-3.659.576-5.048 1.775-2.753 2.374-3.371 6.186-1.788 9.207 11.233 21.429 17.419 48.661 17.419 76.679 0 8.708-.588 17.393-1.749 25.82-.557 4.046 2.098 7.993 6.123 8.68 4.2.717 8.117-2.177 8.698-6.358 1.279-9.189 1.928-18.657 1.928-28.142 0-25.843-4.911-51.185-13.963-72.661h56.535c-9.052 21.477-13.963 46.819-13.963 72.661s4.911 51.184 13.963 72.661h-56.527c1.094-2.588 2.129-5.232 3.1-7.921 1.305-3.614-.125-7.775-3.558-9.501-4.108-2.065-8.955-.037-10.46 4.153-2.185 6.086-4.724 11.902-7.547 17.287l.01.016c-1.133 2.17-1.155 4.763-.01 6.949 11.233 21.429 17.419 48.661 17.419 76.679 0 17.543-2.426 34.776-6.997 50.471-3.52-13.933-10.787-28.274-14.153-34.118-3.155-16.517-13.001-34.167-27.398-48.865-4.86-4.961-10.054-9.393-15.423-13.22 2.903-11.2 6.84-21.597 11.741-30.948 1.146-2.185 1.124-4.779-.01-6.948l.01-.016c-11.233-21.429-17.419-48.66-17.419-76.679 0-27.926 6.145-55.07 17.307-76.466.964-1.847 1.258-4.009.612-5.99-1.034-3.17-3.947-5.205-7.143-5.205h-79.969c-1.835 0-3.658.577-5.048 1.775-2.752 2.375-3.37 6.185-1.787 9.207 11.232 21.429 17.418 48.661 17.418 76.679 0 16.871-2.258 33.447-6.495 48.653-5.693-27.769-17.273-46.652-20.827-51.968-3.457-19.784-15.44-41.113-33.145-58.817-18.24-18.244-40.337-30.441-60.622-33.464-3.095-.462-6.239 1.046-7.773 3.975-.753 1.439-.969 3.106-.726 4.712 3.064 20.24 15.244 42.266 33.438 60.46 9.787 9.787 20.684 17.811 31.814 23.635-11.917 3.969-23.962 10.146-35.187 18.238-20.877 15.05-36.429 34.849-42.69 54.342-.497 1.546-.547 3.226-.03 4.766 1.051 3.13 3.908 5.116 7.034 5.156.309.004.617.006.927.006 20.293 0 43.659-8.472 64.272-23.333 15.811-11.399 28.56-25.522 36.54-40.172 6.361 12.761 14.8 36.363 15.183 63.75.018 1.281.297 2.556.87 3.702 0 .001.001.001.001.001 11.232 21.429 17.418 48.661 17.418 76.679s-6.186 55.25-17.418 76.679l.01.016c-1.134 2.169-1.155 4.763-.01 6.948 11.232 21.429 17.418 48.661 17.418 76.679 0 27.926-6.145 55.07-17.307 76.466-.964 1.848-1.258 4.009-.612 5.991 1.034 3.17 3.947 5.205 7.143 5.205h79.971c1.835 0 3.658-.577 5.047-1.776 2.751-2.375 3.369-6.186 1.786-9.206-11.233-21.429-17.419-48.661-17.419-76.679 0-9.484.697-18.921 2.071-28.053.606-4.029-2.005-7.999-6.012-8.737-4.19-.772-8.148 2.073-8.782 6.249-1.511 9.949-2.277 20.225-2.277 30.542 0 25.843 4.911 51.185 13.963 72.661h-56.535c9.052-21.477 13.963-46.818 13.963-72.661s-4.911-51.184-13.963-72.661h56.527c-1.143 2.704-2.222 5.47-3.231 8.284-1.395 3.893.379 8.366 4.237 9.854 3.953 1.525 8.36-.514 9.772-4.48 2.19-6.155 4.743-12.037 7.586-17.486.804-1.541 1.161-3.303.839-5.011-.547-2.901-2.585-4.985-5.1-5.791 2.868-1.629 5.678-3.441 8.395-5.451 9.638-7.129 17.429-16.065 22.699-25.79 3.715 9.666 7.221 22.885 7.221 38.371h.011c0 1.194.274 2.39.846 3.482 11.233 21.429 17.419 48.661 17.419 76.679 0 27.924-6.144 55.067-17.306 76.462-.963 1.847-1.259 4.007-.616 5.988 1.031 3.173 3.946 5.211 7.145 5.211h79.971c1.835 0 3.658-.577 5.047-1.776 2.751-2.375 3.369-6.186 1.786-9.206-3.273-6.245-6.104-12.994-8.492-20.101 4.586-20.13 14.637-35.233 22.133-44.244 4.825 16.16 14.57 32.802 27.971 47.33 17.492 18.964 39.079 32.042 59.226 35.88.467.089.937.132 1.404.132 2.621 0 5.148-1.375 6.546-3.829.793-1.392 1.071-3.025.896-4.618-2.239-20.353-13.523-42.863-30.976-61.783-9.381-10.17-19.942-18.625-30.824-24.892 12.065-3.484 24.343-9.179 35.883-16.811 21.518-14.229 37.883-33.444 44.897-52.716zm-411.733-207.478c-14.436 10.407-30.176 17.248-44.681 19.596 6.812-13.018 18.278-25.792 32.711-36.198 14.436-10.407 30.176-17.248 44.681-19.596-6.812 13.018-18.277 25.792-32.711 36.198zm-6.761-81.248c-12.582-12.583-21.855-27.027-26.495-40.968 13.94 4.64 28.385 13.913 40.967 26.495s21.855 27.027 26.495 40.967c-13.94-4.639-28.385-13.912-40.967-26.494zm154.539 175.361c9.549 9.749 16.755 20.831 20.742 31.653-10.491-4.074-21.232-11.38-30.699-21.045-9.549-9.749-16.754-20.831-20.741-31.653 10.49 4.075 21.232 11.381 30.698 21.045zm4.95 40.733c-4.652 1.648-9.237 3.8-13.668 6.409-.729-5.45-1.227-10.981-1.474-16.568 4.894 3.918 9.98 7.328 15.142 10.159zm-72.907-251.702h56.535c-9.052 21.477-13.963 46.818-13.963 72.661s4.911 51.184 13.963 72.661h-56.535c9.052-21.477 13.963-46.818 13.963-72.661s-4.911-51.184-13.963-72.661zm0 305.646c9.052-21.477 13.963-46.819 13.963-72.661s-4.911-51.184-13.963-72.661h56.524c-2.54 6.004-4.747 12.311-6.623 18.869-7.351-3.676-14.793-6.174-21.972-7.267-2.351-.358-4.73.42-6.416 2.095-1.686 1.676-2.478 4.051-2.134 6.403 2.259 15.478 10.653 32.171 23.286 46.636-.056 1.973-.094 3.954-.094 5.925 0 11.934 1.032 23.733 3.044 35.133-11.653 10.525-19.759 23.828-22.714 37.528zm70.105-17.141c-9.383 6.939-19.905 11.126-29.948 12.066 4.011-9.578 11.248-18.595 20.721-25.601 9.382-6.939 19.904-11.127 29.948-12.066-4.012 9.578-11.248 18.595-20.721 25.601zm114.688 177.463h-56.535c9.052-21.477 13.963-46.818 13.963-72.661s-4.911-51.185-13.963-72.661h56.535c-9.052 21.477-13.963 46.819-13.963 72.661s4.911 51.184 13.963 72.661zm0-160.322h-56.535c9.052-21.477 13.963-46.818 13.963-72.661s-4.911-51.185-13.963-72.661h56.535c-9.052 21.477-13.963 46.819-13.963 72.661s4.911 51.184 13.963 72.661zm86.137 123.279c12.064 13.079 20.748 27.886 24.822 42.002-13.742-5.198-27.801-15.046-39.866-28.125-12.064-13.079-20.748-27.886-24.822-42.002 13.742 5.197 27.801 15.046 39.866 28.125zm-37.624-46.606c7.331-12.733 19.303-25.034 34.145-34.849 14.843-9.816 30.847-16.017 45.434-17.778-7.332 12.733-19.303 25.034-34.145 34.849-14.844 9.816-30.847 16.017-45.434 17.778z"/></svg>